<svg preserveAspectRatio="none" width="100%" height="100%" overflow="visible" style="display: block;" viewBox="0 0 23.4156 23.4156" fill="none" xmlns="http://www.w3.org/2000/svg">
<path id="Vector" d="M10.537 2.34156C7.95055 2.34156 5.85389 4.43825 5.85389 7.02467C5.85389 7.06263 5.85444 7.10226 5.85543 7.14437C5.86816 7.68882 5.50382 8.17015 4.97636 8.30569C3.46055 8.6952 2.34156 10.0723 2.34156 11.7078C2.34156 13.6476 3.91411 15.2201 5.85389 15.2201H7.02467C7.67127 15.2201 8.19545 15.7443 8.19545 16.3909C8.19545 17.0375 7.67127 17.5617 7.02467 17.5617H5.85389C2.62092 17.5617 0 14.9408 0 11.7078C0 9.29301 1.46137 7.22189 3.54659 6.32657C3.89701 2.77469 6.89291 0 10.537 0C13.1403 0 15.4108 1.41587 16.6239 3.51613C20.3958 3.63905 23.4156 6.73536 23.4156 10.537C23.4156 14.4166 20.2706 17.5617 16.3909 17.5617C15.7443 17.5617 15.2201 17.0375 15.2201 16.3909C15.2201 15.7443 15.7443 15.2201 16.3909 15.2201C18.9774 15.2201 21.074 13.1234 21.074 10.537C21.074 7.95058 18.9774 5.85389 16.3909 5.85389C16.2613 5.85389 16.1333 5.85913 16.0066 5.86937C15.5068 5.90981 15.0368 5.62746 14.8377 5.16723C14.1177 3.50266 12.4616 2.34156 10.537 2.34156ZM11.7078 9.36623C12.3544 9.36623 12.8786 9.89039 12.8786 10.537V19.4183L13.2215 19.0754C13.6787 18.6182 14.42 18.6182 14.8772 19.0754C15.3344 19.5326 15.3344 20.2739 14.8772 20.7311L12.5356 23.0726C12.3161 23.2922 12.0183 23.4156 11.7078 23.4156C11.3973 23.4156 11.0994 23.2922 10.8799 23.0726L8.53836 20.7311C8.08115 20.2739 8.08115 19.5326 8.53836 19.0754C8.99558 18.6182 9.7369 18.6182 10.1941 19.0754L10.537 19.4183V10.537C10.537 9.89039 11.0612 9.36623 11.7078 9.36623Z" fill="var(--fill-0, white)"/>
</svg>
