<svg preserveAspectRatio="none" width="100%" height="100%" overflow="visible" style="display: block;" viewBox="0 0 11.7078 14.3095" fill="none" xmlns="http://www.w3.org/2000/svg">
<path id="Vector" d="M1.46347 6.15266V1.43095C1.05935 1.43095 0.731737 1.11062 0.731737 0.715476C0.731737 0.320333 1.05935 0 1.46347 0H10.2443C10.6484 0 10.976 0.320333 10.976 0.715476C10.976 1.11062 10.6484 1.43095 10.2443 1.43095V6.15266C10.9261 6.88295 11.2922 7.60844 11.4873 8.18061C11.5941 8.49406 11.6492 8.75993 11.6776 8.95404C11.6918 9.0512 11.6993 9.13054 11.7033 9.18928C11.7053 9.21869 11.7064 9.24294 11.7071 9.26169L11.7075 9.27843L11.7076 9.28566L11.7078 9.29453V9.29811V9.29968V9.30047C11.7078 9.30047 11.7044 9.20653 11.7078 9.30118C11.7078 9.69634 11.3802 10.0167 10.976 10.0167H6.58563V13.594C6.58563 13.9892 6.25803 14.3095 5.85389 14.3095C5.44975 14.3095 5.12216 13.9892 5.12216 13.594V10.0167H0.731737C0.327613 10.0167 0 9.69634 0 9.30118C0 8.94345 0 9.30047 0 9.30047V9.29968L7.3273e-06 9.29811L2.93092e-05 9.29453L0.00013887 9.28566C0.000241313 9.27908 0.000431681 9.27106 0.000739011 9.26169C0.00135367 9.24294 0.00247342 9.21869 0.00447838 9.18928C0.00848098 9.13054 0.0160322 9.0512 0.0302206 8.95404C0.0585827 8.75993 0.113624 8.49406 0.220487 8.18061C0.415539 7.60844 0.78167 6.88295 1.46347 6.15266ZM8.78084 1.43095H2.92695V6.43928C2.92695 6.62903 2.84985 6.81104 2.71263 6.94519C2.09283 7.5512 1.78234 8.14598 1.62539 8.58571H10.0824C9.92542 8.14598 9.61495 7.5512 8.99516 6.94519C8.85796 6.81104 8.78084 6.62903 8.78084 6.43928V1.43095Z" fill="var(--fill-0, #F98149)"/>
</svg>
