<svg preserveAspectRatio="none" width="100%" height="100%" overflow="visible" style="display: block;" viewBox="0 0 17.8013 16.9112" fill="none" xmlns="http://www.w3.org/2000/svg">
<path id="Vector" d="M0 1.78013C0 0.796991 0.796991 0 1.78013 0H16.0212C17.0043 0 17.8013 0.796991 17.8013 1.78013V11.5709C17.8013 12.554 17.0043 13.351 16.0212 13.351H9.79072V15.1311H12.4609C12.9525 15.1311 13.351 15.5296 13.351 16.0212C13.351 16.5128 12.9525 16.9112 12.4609 16.9112H5.34039C4.84883 16.9112 4.45033 16.5128 4.45033 16.0212C4.45033 15.5296 4.84883 15.1311 5.34039 15.1311H8.01059V13.351H1.78013C0.796991 13.351 0 12.554 0 11.5709V1.78013ZM16.0212 11.5709V1.78013H1.78013V11.5709H16.0212Z" fill="var(--fill-0, #F98149)"/>
</svg>
