<svg preserveAspectRatio="none" width="100%" height="100%" overflow="visible" style="display: block;" viewBox="0 0 199.902 119.714" fill="none" xmlns="http://www.w3.org/2000/svg">
<g id="Group">
<path id="Vector" d="M102.102 16.6223C101.083 20.8727 100.064 25.1231 99.0604 29.3814C96.9194 38.4272 94.7231 47.4573 92.6927 56.5269C91.9659 59.7739 90.3621 61.0143 86.9334 60.9037C79.7125 60.6745 79.7046 60.8642 77.5241 53.7302C72.7602 38.0954 67.9963 22.4607 63.2403 6.82592C61.8103 2.12522 62.1263 1.7223 67.1589 1.7144C73.7556 1.6986 73.7398 1.7065 75.4226 8.34278C78.6459 21.0149 81.893 33.687 85.14 46.4066C86.965 45.7429 86.7596 43.9654 87.0914 42.5749C90.054 30.361 93.1509 18.1708 95.758 5.87788C96.7219 1.31149 99.6134 1.7302 102.797 1.6907C105.926 1.6591 108.596 1.5169 109.505 5.79887C112.451 19.6086 115.809 33.3394 119.025 47.0939C119.064 47.2519 119.404 47.3388 120.012 47.7101C121.719 41.2318 123.409 34.88 125.052 28.5123C126.949 21.165 128.758 13.794 130.677 6.4467C131.736 2.37803 138.625 -0.371282 142.093 1.96721C144.203 3.39717 142.71 5.40386 142.22 6.99182C138.056 20.612 133.767 34.2006 129.524 47.797C128.513 51.0362 127.494 54.2832 126.514 57.5302C125.827 59.8134 124.531 60.9353 121.94 60.8642C112.602 60.6034 113.858 62.1756 111.654 53.0112C108.746 40.9237 105.815 28.852 102.892 16.7724C102.623 16.7171 102.363 16.6697 102.102 16.6223Z" fill="var(--fill-0, #003f7d)"/>
<path id="Vector_2" d="M99.661 119.714C62.6874 119.208 30.2487 107.405 2.42372 83.3407C2.12351 83.08 1.80749 82.843 1.52308 82.5744C0.582942 81.6659 -0.617908 80.7731 0.369633 79.2721C1.42828 77.6683 2.75553 78.6243 3.82208 79.2405C9.37601 82.448 15.1037 85.3158 20.9658 87.915C49.6361 100.642 79.7047 106.323 110.974 104.901C132.842 103.905 154.031 99.1809 174.366 90.9014C175.212 90.5537 176.136 90.3562 176.926 89.9138C178.846 88.8552 180.663 89.0053 181.714 90.9014C182.82 92.908 181.469 94.3933 179.81 95.4677C176.507 97.6087 173.284 99.884 169.847 101.78C147.916 113.852 124.27 119.271 99.661 119.714Z" fill="var(--fill-0, #FA9500)"/>
<path id="Vector_3" d="M45.354 27.7934C44.8721 22.674 46.1045 17.681 42.3203 13.4148C37.8961 8.42974 32.2553 9.26717 26.7724 9.8913C23.5728 10.2547 20.4996 11.6531 17.3315 12.451C15.712 12.8618 13.9265 14.7579 12.3859 12.6801C11.0034 10.8077 12.5518 5.42761 14.6217 4.41637C21.8663 0.892824 29.5613 -0.576637 37.5485 0.363502C50.3154 1.88037 56.0353 8.32703 56.2881 21.252C56.4303 28.3465 56.3829 35.4489 56.3118 42.5513C56.2723 46.3039 56.8095 49.8986 58.753 53.1219C61.3048 57.3644 57.402 58.2018 55.2689 59.932C52.9857 61.7807 51.0975 61.3066 49.2805 58.9681C45.7964 54.4729 45.6384 54.4413 41.1194 57.8147C36.3081 61.4093 30.6515 62.7287 25.0028 63.0289C17.0234 63.4555 9.0757 55.5947 8.32517 47.5285C7.21913 35.6543 14.7165 26.9165 26.6381 26.0554C32.8478 25.6129 38.931 26.324 45.354 27.7934ZM34.096 34.011C31.2203 33.7582 28.5737 33.9636 26.1088 34.9353C22.3878 36.4048 20.2152 39.1225 20.073 43.286C19.9308 47.2124 20.6576 50.8466 24.6077 52.5136C29.8694 54.7415 34.9098 53.351 39.5789 50.5148C44.2954 47.6549 45.3224 42.9858 45.3935 37.9296C45.4172 36.0256 44.1611 34.8879 42.581 34.8642C39.6263 34.8089 36.8612 33.3 34.096 34.011Z" fill="var(--fill-0, #003f7d)"/>
<path id="Vector_4" d="M170.471 0C174.951 0.110605 179.201 0.845335 183.286 2.3859C184.495 2.84412 185.782 3.37344 186.707 4.22668C189.077 6.40717 188.919 9.40139 187.647 11.7873C186.264 14.3707 184.51 11.6451 182.907 11.2896C179.114 10.4363 175.48 8.48495 171.348 10.0176C170.061 10.4995 168.441 10.46 167.043 10.223C163.48 9.6226 161.173 11.4081 159.964 14.2838C158.495 17.7836 159.94 20.9596 163.393 22.8952C168.236 25.605 173.726 26.5609 178.893 28.4096C184.147 30.2899 188.634 33.0155 190.625 38.5931C193.414 46.4223 189.859 55.2628 182.156 59.3078C178.198 61.3856 173.995 62.4995 169.389 62.6654C163.021 62.8945 157.033 61.4014 151.029 59.7818C148.098 58.9918 146.146 53.1218 147.853 50.5384C149.093 48.6502 150.61 49.8195 152.016 50.3725C158.605 52.9875 165.376 54.2121 172.454 52.9559C179.067 51.7788 182.425 46.0984 179.193 41.374C177.574 39.0039 174.785 38.1902 172.241 37.1947C166.703 35.0222 160.659 34.319 155.508 30.9535C147.26 25.5576 145.641 14.2048 152.388 6.94439C157.27 1.65117 163.638 0.023701 170.471 0Z" fill="var(--fill-0, #003f7d)"/>
<path id="Vector_5" d="M176.318 82.5189C173.055 82.8508 169.792 83.2853 166.521 83.4749C165.131 83.5539 163.014 84.7073 162.461 82.6058C161.979 80.773 164.072 80.1093 165.384 79.3825C172.715 75.3059 180.694 73.8444 188.935 74.587C200.2 75.6062 201.314 77.4706 198.763 88.5943C196.945 96.5341 193.706 103.723 187.884 109.57C186.888 110.565 185.672 112.098 184.218 111.134C182.551 110.036 184.139 108.464 184.589 107.271C186.896 101.148 189.44 95.1279 190.112 88.5232C190.483 84.8969 188.966 83.1352 185.379 82.8508C182.369 82.6059 179.359 82.3135 176.318 82.5189Z" fill="var(--fill-0, #FA9500)"/>
</g>
</svg>
