<svg preserveAspectRatio="none" width="100%" height="100%" overflow="visible" style="display: block;" viewBox="0 0 240.489 16.669" fill="none" xmlns="http://www.w3.org/2000/svg">
<g id="Group">
<path id="Vector" d="M240.489 12.8457V16.669H0V12.8457C0 5.75287 5.7553 0 12.8511 0H227.638C234.734 0 240.489 5.75287 240.489 12.8457Z" fill="var(--fill-0, #3052CE)"/>
<g id="Group_2">
<path id="Vector_2" d="M195.162 8.6293C195.162 10.273 193.821 11.6129 192.177 11.6129C190.533 11.6129 189.192 10.273 189.192 8.6293C189.192 6.98563 190.533 5.64569 192.177 5.64569C193.839 5.64569 195.162 6.98563 195.162 8.6293Z" fill="var(--fill-0, #FFC48F)"/>
<path id="Vector_3" d="M210.408 8.6293C210.408 10.273 209.068 11.6129 207.423 11.6129C205.779 11.6129 204.438 10.273 204.438 8.6293C204.438 6.98563 205.779 5.64569 207.423 5.64569C209.068 5.64569 210.408 6.98563 210.408 8.6293Z" fill="var(--fill-0, #FFC48F)"/>
<path id="Vector_4" d="M225.654 8.6293C225.654 10.273 224.314 11.6129 222.669 11.6129C221.025 11.6129 219.685 10.273 219.685 8.6293C219.685 6.98563 221.025 5.64569 222.669 5.64569C224.314 5.64569 225.654 6.98563 225.654 8.6293Z" fill="var(--fill-0, #FFC48F)"/>
</g>
</g>
</svg>
