<svg preserveAspectRatio="none" width="100%" height="100%" overflow="visible" style="display: block;" viewBox="0 0 21 24.4028" fill="none" xmlns="http://www.w3.org/2000/svg">
<g id="Group">
<path id="Vector" d="M15.4566 0C15.5166 0 15.5765 0 15.6398 0C15.7869 1.72094 15.0935 3.00682 14.2508 3.93801C13.424 4.86278 12.2918 5.75968 10.4605 5.62359C10.3384 3.9273 11.0329 2.73679 11.8744 1.80774C12.6549 0.941909 14.0857 0.171451 15.4566 0Z" fill="var(--fill-0, white)"/>
<path id="Vector_2" d="M21 17.9123C21 17.9295 21 17.9445 21 17.9605C20.4853 19.4372 19.7513 20.7027 18.8554 21.8771C18.0376 22.9433 17.0355 24.3782 15.2461 24.3782C13.6999 24.3782 12.6728 23.4362 11.0882 23.4105C9.41188 23.3848 8.49004 24.1981 6.9574 24.4028C6.78207 24.4028 6.60675 24.4028 6.43483 24.4028C5.30938 24.2485 4.40111 23.4041 3.73942 22.6433C1.78827 20.3951 0.280513 17.4912 0 13.775C0 13.4107 0 13.0474 0 12.6831C0.118765 10.0234 1.48287 7.861 3.29602 6.81301C4.25294 6.25579 5.5684 5.78109 7.03318 5.99326C7.66094 6.08541 8.30227 6.28901 8.86443 6.49047C9.39718 6.68442 10.0634 7.02839 10.6945 7.01018C11.1221 6.99839 11.5474 6.78729 11.9783 6.63834C13.2407 6.2065 14.4781 5.71144 16.1091 5.94397C18.0693 6.22472 19.4606 7.04982 20.3202 8.32285C18.662 9.32262 17.3511 10.8292 17.575 13.4021C17.7741 15.7392 19.2083 17.1065 21 17.9123Z" fill="var(--fill-0, white)"/>
</g>
</svg>
