<svg preserveAspectRatio="none" width="100%" height="100%" overflow="visible" style="display: block;" viewBox="0 0 18.6431 20.1516" fill="none" xmlns="http://www.w3.org/2000/svg">
<g id="004-instagram">
<path id="Shape" fill-rule="evenodd" clip-rule="evenodd" d="M5.82597 0H12.8171C16.0342 0 18.6431 2.81997 18.6431 6.29738V13.8542C18.6431 17.3316 16.0342 20.1516 12.8171 20.1516H5.82597C2.60887 20.1516 0 17.3316 0 13.8542V6.29738C0 2.81997 2.60887 0 5.82597 0ZM12.8172 18.2624C15.066 18.2624 16.8953 16.285 16.8953 13.8542V6.29738C16.8953 3.86659 15.066 1.88921 12.8172 1.88921H5.82601C3.5772 1.88921 1.74785 3.86659 1.74785 6.29738V13.8542C1.74785 16.285 3.5772 18.2624 5.82601 18.2624H12.8172Z" fill="var(--fill-0, white)"/>
<path id="Shape_2" fill-rule="evenodd" clip-rule="evenodd" d="M4.66087 10.0756C4.66087 7.29344 6.74771 5.03772 9.3216 5.03772C11.8955 5.03772 13.9823 7.29344 13.9823 10.0756C13.9823 12.8578 11.8955 15.1135 9.3216 15.1135C6.74771 15.1135 4.66087 12.8578 4.66087 10.0756ZM6.40872 10.0756C6.40872 11.8112 7.71605 13.2243 9.32166 13.2243C10.9273 13.2243 12.2346 11.8112 12.2346 10.0756C12.2346 8.3388 10.9273 6.92693 9.32166 6.92693C7.71605 6.92693 6.40872 8.3388 6.40872 10.0756Z" fill="var(--fill-0, white)"/>
<ellipse id="Oval" cx="14.3319" cy="4.65997" rx="0.621052" ry="0.6713" fill="var(--fill-0, white)"/>
</g>
</svg>
