<svg preserveAspectRatio="none" width="100%" height="100%" overflow="visible" style="display: block;" viewBox="0 0 232 109" fill="none" xmlns="http://www.w3.org/2000/svg">
<g id="Group 2180">
<path id="Vector" d="M0.0832711 54.3857C0.0832711 46.9788 -0.0145999 39.5718 0.124866 32.1672C0.195823 28.4637 2.01378 25.429 5.18724 23.4982C10.5653 20.2251 16.0656 17.1515 21.5219 14.0073C28.5613 9.94874 35.6129 5.91211 42.6498 1.84873C46.8999 -0.604858 51.1401 -0.619448 55.3902 1.82442C67.5433 8.81071 79.7013 15.7873 91.8447 22.793C95.8158 25.0837 97.9469 28.5537 97.9616 33.1253C98.0081 47.3727 98.0155 61.62 97.9665 75.8674C97.9494 80.3734 95.9161 83.8726 91.967 86.1462C79.7503 93.1812 67.5139 100.184 55.285 107.202C51.1108 109.598 46.9439 109.6 42.7722 107.205C30.5799 100.206 18.3876 93.2128 6.20021 86.207C1.97218 83.7778 -0.0145999 80.0961 8.07497e-05 75.2716C0.0221017 68.3097 0.0049743 61.3477 0.0049743 54.3857C0.0318888 54.3857 0.0563566 54.3857 0.0832711 54.3857ZM21.0228 70.7341C20.7756 69.9705 20.4894 69.2143 20.2863 68.4386C20.0123 67.3905 19.151 66.3643 19.5009 65.3235C19.8703 64.222 19.6012 63.3101 19.5229 62.262C19.3002 59.2832 19.4397 56.28 19.4373 53.2866C19.4373 52.72 19.633 52.3869 20.2936 52.3917C23.7142 52.416 27.1348 52.4088 30.5554 52.4209C31.1744 52.4233 31.7617 52.6057 31.7299 53.3425C31.6981 54.0429 31.1573 54.2179 30.5089 54.2106C28.8794 54.1961 27.2523 54.2034 25.6227 54.2252C25.1896 54.2301 24.6024 54.2204 24.5143 54.7335C24.4287 55.232 25.0624 55.266 25.3854 55.4168C28.6004 56.922 31.8302 58.3932 35.0624 59.8595C39.3222 61.7903 43.5967 63.687 47.8468 65.6445C48.7056 66.0409 49.4886 66.0312 50.3033 65.6591C54.7834 63.6141 59.2585 61.5641 63.7361 59.5142C67.1836 57.936 70.6287 56.353 74.0762 54.7797C79.1508 52.4671 84.2254 50.157 89.3049 47.8542C89.9386 47.5672 89.9974 47.2146 89.4884 46.7842C89.2462 46.58 88.9428 46.4365 88.6492 46.3052C86.0727 45.1428 83.4914 43.9853 80.91 42.8303C75.784 40.5372 70.6899 38.176 65.581 35.8464C60.3987 33.4852 55.2434 31.0632 50.0856 28.6486C49.3564 28.3081 48.735 28.3227 48.0083 28.6631C43.6603 30.6912 39.3002 32.6973 34.9327 34.6841C28.3191 37.6945 21.6932 40.6806 15.0796 43.6887C12.8408 44.7051 10.6215 45.7605 8.39007 46.7939C8.16986 46.8961 7.88114 46.952 7.87136 47.2341C7.86157 47.4967 8.07444 47.6256 8.32156 47.735C10.575 48.7344 12.7625 49.9187 15.0869 50.7163C17.2474 51.458 18.0475 52.6495 17.7612 54.8915C17.3918 57.7901 18.2163 60.7714 17.2425 63.653C17.1642 63.8888 17.2254 64.2755 17.3795 64.4651C18.0377 65.2676 17.727 66.0287 17.4407 66.8531C16.9856 68.1662 16.2981 69.4283 16.1782 71.2204C17.8591 69.5304 19.3663 69.7979 21.0228 70.7341ZM76.3957 65.8245C76.3957 65.0974 76.3713 64.3679 76.4031 63.6408C76.4398 62.7873 76.0801 62.6633 75.3705 62.9915C73.8315 63.7016 72.2827 64.3922 70.7388 65.0925C63.7508 68.2683 56.7628 71.4417 49.7797 74.6272C49.3662 74.8169 49.0481 74.9701 48.5441 74.7342C44.5583 72.874 40.5505 71.0551 36.5451 69.2313C31.9843 67.157 27.4186 65.0974 22.8603 63.0183C22.0651 62.656 21.7274 62.8578 21.7299 63.7283C21.7372 65.022 21.7201 66.3157 21.6932 67.6093C21.6761 68.4386 22.0357 68.8957 22.826 69.2507C31.1842 73.0199 39.5277 76.8182 47.8541 80.653C48.7178 81.0494 49.4396 81.0615 50.2715 80.6773C58.0865 77.0881 65.8771 73.4406 73.7508 69.9851C75.7669 69.1024 77.049 68.1832 76.3957 65.8245ZM76.3933 58.1962C76.3933 57.4691 76.3688 56.7396 76.4006 56.0125C76.43 55.2806 76.244 55.0909 75.5076 55.4289C71.2893 57.3621 67.0491 59.2467 62.8235 61.1702C58.5612 63.1107 54.3038 65.0682 50.0538 67.0355C49.4152 67.3321 48.8108 67.3686 48.1795 67.0817C42.8138 64.6281 37.448 62.1696 32.0822 59.716C29.1094 58.3567 26.139 56.9901 23.1564 55.6478C21.8914 55.0788 21.7274 55.2028 21.7201 56.6302C21.7128 57.8825 21.7348 59.1373 21.7201 60.392C21.7128 60.9854 21.9134 61.3526 22.508 61.586C23.6677 62.0456 24.7981 62.5806 25.9334 63.101C32.8285 66.2622 39.7479 69.3675 46.594 72.6308C48.3557 73.4697 49.765 73.4746 51.5365 72.6381C58.9086 69.151 66.3199 65.7394 73.7973 62.4833C75.8941 61.569 77.0148 60.5209 76.3933 58.1962Z" fill="var(--fill-0, white)"/>
<path id="Vector_2" d="M124.871 54.9951C120.743 54.9951 116.613 54.9976 112.484 54.9927C111.964 54.9927 111.439 54.9878 110.924 54.9268C110.139 54.8366 109.377 54.5951 109.129 53.739C108.881 52.8829 109.002 52.0463 109.664 51.3683C109.804 51.2244 109.936 51.0561 110.102 50.9536C112.631 49.4146 113.137 46.978 113.123 44.2389C113.084 37.2974 113.091 30.3559 113.115 23.4144C113.125 20.7924 112.509 18.5315 110.177 17.0168C109.209 16.39 108.758 15.3973 109.129 14.2753C109.491 13.1753 110.531 13.029 111.519 13.0265C119.857 13.007 128.195 12.9948 136.531 13.0021C138.99 13.0046 140.712 14.0217 141.457 16.5778C141.989 18.4071 142.577 20.2168 142.858 22.1071C143.008 23.1144 142.935 24.0827 141.825 24.5656C140.753 25.0315 139.93 24.573 139.301 23.7437C138.251 22.3632 137.316 20.8949 136.045 19.6949C134.522 18.2583 132.759 17.4217 130.654 17.3412C128.971 17.2753 127.287 17.2461 125.609 17.3997C123.571 17.5851 122.945 18.3046 122.942 20.3607C122.94 22.7973 122.925 25.2315 122.959 27.6681C122.983 29.3876 123.585 30.051 125.266 30.3754C126.22 30.5584 127.181 30.5511 128.14 30.4852C129.689 30.3779 130.563 29.3876 131.138 28.034C131.403 27.412 131.608 26.751 132.133 26.2827C133.142 25.3803 134.306 25.7339 134.85 26.9925C135.103 27.5779 135.202 28.1486 135.204 28.7486C135.221 31.3876 135.221 34.0267 135.209 36.6633C135.206 37.1072 135.178 37.5657 135.06 37.9901C134.831 38.8023 134.409 39.4657 133.465 39.5462C132.584 39.6218 132.056 39.1023 131.632 38.4145C131.57 38.3121 131.543 38.1901 131.488 38.0828C129.872 34.8389 128.27 34.1121 124.713 35.0169C123.655 35.2852 123.002 35.9877 122.99 37.0828C122.947 40.856 122.952 44.6316 122.974 48.4073C122.981 49.5634 123.744 50.1975 124.768 50.3878C127.593 50.9097 130.45 50.7878 133.26 50.3731C134.84 50.1414 135.883 48.8561 136.671 47.4951C137.439 46.1682 138.121 44.7877 138.827 43.4219C139.087 42.9146 139.359 42.417 139.768 42.0194C140.313 41.4901 140.883 41.1706 141.705 41.4804C142.533 41.7926 142.952 42.3389 142.979 43.195C143.075 46.3341 142.858 49.4463 142.011 52.478C141.514 54.2488 140.387 54.9512 138.097 54.9756C134.891 55.0122 131.683 54.9951 128.475 55C127.278 54.9976 126.073 54.9951 124.871 54.9951Z" fill="var(--fill-0, white)"/>
<path id="Vector_3" d="M170.93 17.337C167.346 17.3785 163.983 17.0422 160.67 17.5295C157.74 17.9632 155.786 19.9488 154.143 22.2243C153.665 22.8846 153.25 23.5911 152.627 24.1417C151.911 24.7776 151.112 24.9335 150.218 24.5437C149.392 24.1831 149.265 23.4595 149.304 22.7091C149.459 19.8684 150.357 17.2177 151.677 14.7204C152.389 13.3731 153.872 13.205 155.234 13.0881C156.593 12.9712 157.964 13.0053 159.331 13.0053C166.582 12.998 173.832 13.0004 181.083 13.0004C181.25 13.0004 181.414 13.0028 181.581 13.0053C184.128 13.0467 184.668 13.9457 183.373 16.075C179.224 22.8992 175.052 29.7087 170.89 36.5255C168.237 40.8719 165.598 45.2281 162.915 49.5599C162.36 50.454 162.477 50.6927 163.565 50.6635C166.422 50.5904 169.282 50.6318 172.14 50.5685C175.674 50.4905 178.081 48.5342 180.028 45.8761C180.556 45.155 181.061 44.4217 181.713 43.8004C182.38 43.1645 183.162 43.0281 184.003 43.3424C184.83 43.6518 185.031 44.39 184.996 45.1452C184.854 48.064 183.854 50.761 182.574 53.3532C182.141 54.2327 181.163 54.5421 180.207 54.7638C179.473 54.932 178.736 54.9807 177.989 54.9807C169.29 54.9807 160.588 54.988 151.888 54.9734C150.922 54.9709 149.762 55.2292 149.192 54.1864C148.647 53.1875 149.382 52.3348 149.889 51.5114C156.65 40.5503 163.415 29.5942 170.176 18.6332C170.383 18.297 170.577 17.9461 170.93 17.337Z" fill="var(--fill-0, white)"/>
<path id="Vector_4" d="M214.203 31.023C214.746 30.0848 215.185 29.327 215.624 28.5691C217.165 25.908 218.725 23.2543 220.241 20.5786C221.143 18.9849 221.548 17.63 219.889 16.1265C218.628 14.9836 219.27 13.3192 221 13.1778C224.096 12.9244 227.21 12.9561 230.311 13.1827C231.092 13.2388 231.803 13.5921 231.968 14.5206C232.128 15.4125 231.677 15.9997 230.992 16.4457C230.451 16.7966 229.889 17.1158 229.319 17.4204C227.785 18.2392 226.565 19.3919 225.651 20.8686C222.601 25.7862 219.559 30.7087 216.512 35.6287C216.274 36.0113 216.088 36.3939 216.095 36.8691C216.131 39.9078 216.105 42.9515 216.192 45.9878C216.25 47.9397 216.99 49.609 218.664 50.7641C218.957 50.9663 219.232 51.2319 219.443 51.5219C219.964 52.2408 220.243 53.0352 219.86 53.9101C219.501 54.7313 218.754 54.9433 217.96 54.9603C216.185 54.9993 214.409 55.0018 212.633 54.9993C209.807 54.9969 206.981 54.9969 204.157 54.9506C203.286 54.936 202.427 54.702 202.136 53.7224C201.85 52.7574 201.974 51.7827 202.874 51.2246C205.748 49.4433 206.234 46.6628 206.175 43.6216C206.166 43.1757 206.119 42.7224 206.183 42.2838C206.784 38.146 205.438 34.71 202.898 31.447C200.397 28.2304 198.291 24.6993 196.04 21.2902C194.817 19.4382 193.371 17.8396 191.409 16.7527C191.062 16.5602 190.725 16.3019 190.472 15.9997C189.565 14.9129 190.019 13.5166 191.372 13.1584C191.605 13.0974 191.85 13.056 192.09 13.056C196.853 13.0536 201.617 13.0487 206.379 13.0731C207.172 13.0779 207.907 13.3265 208.237 14.1672C208.579 15.042 208.223 15.7317 207.624 16.358C206.445 17.5959 206.224 18.2124 207.044 19.5697C209.329 23.3664 211.733 27.0948 214.203 31.023Z" fill="var(--fill-0, white)"/>
<path id="Vector_5" d="M135.582 79.5639C135.582 80.1018 135.597 80.6397 135.58 81.1753C135.546 82.2395 135.706 83.2091 136.797 83.8024C137.046 83.9386 137.272 84.1348 137.155 84.4511C137.046 84.7489 136.719 84.8297 136.462 84.8343C135.214 84.8597 133.966 84.8551 132.717 84.8228C132.46 84.8158 132.131 84.7466 132.027 84.4395C131.92 84.1233 132.153 83.9247 132.383 83.7747C133.449 83.0844 133.629 82.0525 133.626 80.9398C133.621 76.6021 133.614 72.262 133.626 67.9243C133.629 66.8369 133.389 65.8697 132.448 65.1563C132.225 64.9878 131.976 64.7847 132.053 64.4938C132.145 64.1544 132.521 64.0321 132.819 64.0251C134.067 63.9998 135.318 63.972 136.561 64.0598C137.376 64.1175 137.546 64.6484 136.886 65.1032C135.754 65.8835 135.565 66.9524 135.573 68.1459C135.585 69.7965 135.57 71.4471 135.577 73.0977C135.58 73.4371 135.51 73.8618 135.861 74.0465C136.275 74.2658 136.494 73.8457 136.746 73.6217C139.358 71.2947 141.957 68.9539 144.582 66.6407C145.214 66.082 145.5 65.6273 144.688 64.9786C144.145 64.5446 144.342 64.0898 145.011 64.0528C146.256 63.9859 147.507 64.0182 148.755 64.0436C149.066 64.0505 149.449 64.1637 149.485 64.5284C149.521 64.8724 149.204 65.1009 148.908 65.1979C146.768 65.9043 145.411 67.5803 143.76 68.8962C143.164 69.3717 143.096 69.8958 143.396 70.5329C145.161 74.2681 146.938 77.9964 148.673 81.7455C149.063 82.5858 149.57 83.2668 150.442 83.6823C150.774 83.8393 151.114 84.0402 150.963 84.4696C150.854 84.7835 150.542 84.9728 150.219 84.9774C149.1 84.9936 147.968 85.0398 146.86 84.922C146.145 84.8458 145.755 84.361 146.361 83.7031C146.841 83.1837 146.782 82.6689 146.528 82.1033C145.025 78.7628 143.498 75.4316 142.042 72.0727C141.637 71.1377 141.281 71.0431 140.529 71.7541C139.189 73.0238 137.805 74.2497 136.414 75.4663C135.81 75.9926 135.483 76.5697 135.556 77.3777C135.619 78.1026 135.57 78.8367 135.57 79.5662C135.577 79.5639 135.58 79.5639 135.582 79.5639Z" fill="var(--fill-0, white)"/>
<path id="Vector_6" d="M117.112 84.9687C115.601 85.1492 113.829 84.4723 112.002 84.8856C111.289 85.0471 110.982 84.4082 110.868 83.8311C110.554 82.24 110.11 80.6678 110.035 79.0411C110.02 78.7276 109.874 78.3737 110.315 78.2336C110.803 78.0769 111.172 78.3286 111.4 78.6872C111.81 79.3308 112.163 80.0029 112.55 80.6607C114.348 83.729 118.233 84.4153 121.266 83.1187C124.24 81.8505 124.523 78.2526 121.847 76.5522C120.065 75.4194 117.991 74.8209 116.068 73.947C114.257 73.1253 112.295 72.4485 111.26 70.7148C109.41 67.6085 111.374 63.9536 115.215 63.2578C116.792 62.9704 118.383 62.9158 119.981 63.1319C120.838 63.2483 121.694 63.2886 122.55 63.0725C123.246 62.8968 123.747 63.1295 123.928 63.7921C124.286 65.0888 124.644 66.3855 124.961 67.6893C125.049 68.0502 125.208 68.5394 124.683 68.7342C124.164 68.9289 123.747 68.6344 123.503 68.2307C122.833 67.1169 121.938 66.2073 120.874 65.3833C119.104 64.0153 115.677 63.8895 113.883 65.2242C111.992 66.6301 112.223 69.2495 114.392 70.5652C116.162 71.6386 118.178 72.2727 120.067 73.1324C121.256 73.6739 122.447 74.1868 123.56 74.8898C127.252 77.2243 126.609 82.031 122.61 83.9427C120.757 84.8309 119.919 84.9948 117.112 84.9687Z" fill="var(--fill-0, white)"/>
<path id="Vector_7" d="M216.385 84.9592C214.898 85.14 213.421 84.4619 211.905 84.9211C211.411 85.071 211.025 84.6546 210.926 84.1455C210.608 82.5207 210.323 80.8911 210.053 79.2567C209.992 78.8879 209.89 78.3931 210.373 78.2408C210.855 78.0886 211.159 78.4621 211.343 78.8641C211.909 80.1155 212.494 81.3335 213.482 82.3089C215.54 84.3382 219.345 84.293 221.028 82.1757C222.633 80.1559 222.359 77.7603 220.194 76.4233C218.452 75.3456 216.559 74.5343 214.744 73.5851C213.113 72.7311 211.551 71.7961 210.839 69.8596C209.906 67.3212 211.125 64.6401 213.616 63.6147C215.173 62.9724 216.77 62.9652 218.379 63.0509C219.279 63.0985 220.165 63.3126 221.069 63.0437C221.677 62.8629 222.017 63.2674 222.155 63.8026C222.499 65.1349 222.803 66.479 223.104 67.8208C223.181 68.1657 223.238 68.5797 222.83 68.7391C222.393 68.9104 222.089 68.5773 221.905 68.2347C221.402 67.2926 220.757 66.479 220.013 65.7463C218.2 63.9597 214.882 63.648 213.239 65.4251C212.118 66.6384 212.056 68.8295 213.251 69.9833C214.873 71.5511 216.995 72.1292 218.898 73.1402C219.904 73.6755 220.922 74.168 221.847 74.8745C224.784 77.1227 224.713 81.4049 221.654 83.5532C220.063 84.6737 218.304 85.1495 216.385 84.9592Z" fill="var(--fill-0, white)"/>
<path id="Vector_8" d="M191.473 74.9717C191.473 72.3854 191.473 69.799 191.473 67.215C191.473 66.3924 191.174 65.7185 190.522 65.1956C190.296 65.0144 189.977 64.7983 190.099 64.4427C190.21 64.1174 190.545 64.0198 190.86 64.0175C192.09 64.0082 193.325 63.9757 194.553 64.0337C195.279 64.0686 195.32 64.5891 194.837 64.947C193.692 65.7928 193.551 66.9501 193.554 68.2282C193.57 72.8315 193.584 77.4349 193.538 82.0383C193.526 83.2304 194.025 83.6998 195.142 83.816C196.567 83.9624 197.989 83.9298 199.406 83.8624C200.842 83.7951 201.818 83.0654 202.387 81.6921C202.611 81.1506 202.808 80.1444 203.555 80.3652C204.297 80.5859 203.904 81.4992 203.832 82.115C203.49 84.9779 203.453 84.9918 200.555 84.9872C197.554 84.9802 194.55 84.9964 191.549 84.9964C191.204 84.9964 190.844 85.022 190.515 84.936C189.944 84.785 189.798 84.369 190.33 84.0576C191.417 83.4209 191.489 82.4403 191.477 81.3551C191.452 79.2289 191.47 77.1003 191.47 74.9717C191.47 74.9717 191.47 74.9717 191.473 74.9717Z" fill="var(--fill-0, white)"/>
<path id="Vector_9" d="M169.735 74.617C169.735 72.2584 169.735 69.8997 169.735 67.5411C169.735 66.5791 169.585 65.6844 168.484 65.1523C168.145 64.9896 167.993 64.7084 168.127 64.3622C168.252 64.0368 168.583 64.0206 168.892 64.0182C170.311 64.0089 171.732 63.9811 173.151 64.0206C173.932 64.0415 174.127 64.6108 173.599 64.9408C171.743 66.098 171.98 67.8176 172.033 69.3769C172.18 73.5527 172.052 77.7262 172.129 81.8997C172.159 83.4962 172.569 83.8889 174.399 83.9098C175.775 83.9261 177.154 83.9447 178.524 83.8819C180.34 83.7983 181.778 83.1801 182.37 81.5349C182.46 81.2793 182.591 81.026 182.759 80.8052C182.946 80.5566 183.127 80.2336 183.57 80.3126C184.05 80.3986 184.005 80.7634 183.994 81.0585C183.965 81.8695 183.981 82.6921 183.823 83.4869C183.653 84.356 183.061 84.9718 181.938 84.9764C177.634 84.9927 173.33 85.002 169.025 84.9996C168.641 84.9996 168.156 84.9996 168.023 84.5953C167.911 84.256 168.233 84.0423 168.553 83.8749C169.503 83.38 169.753 82.6108 169.745 81.6976C169.724 79.3389 169.737 76.9803 169.737 74.6216C169.74 74.617 169.737 74.617 169.735 74.617Z" fill="var(--fill-0, white)"/>
<path id="Vector_10" d="M158.759 74.6059C158.759 72.3255 158.748 70.0452 158.764 67.7648C158.772 66.7188 158.593 65.7634 157.496 65.0916C157.251 64.9405 156.97 64.7383 157.091 64.4175C157.229 64.0549 157.598 64.0014 157.979 64.0014C159.354 63.9991 160.727 63.9991 162.102 64.006C162.483 64.0084 162.86 64.0897 162.979 64.443C163.083 64.7569 162.78 64.9498 162.532 65.1032C161.317 65.8517 161.096 66.9535 161.091 68.0902C161.071 72.1489 161.077 76.2052 161.107 80.2638C161.118 81.6469 161.08 83.0369 162.651 84.0249C163.356 84.4688 162.83 84.9152 162.204 84.9454C160.746 85.0128 159.271 85.0291 157.819 84.9291C156.992 84.871 156.644 84.42 157.48 83.8738C158.527 83.1904 158.797 82.2768 158.778 81.2145C158.742 79.0109 158.767 76.8095 158.767 74.6059C158.764 74.6059 158.761 74.6059 158.759 74.6059Z" fill="var(--fill-0, white)"/>
<path id="Vector_11" d="M145.778 97.458C146.125 96.2199 147.172 95.1337 146.154 93.7067C146.042 93.5481 146.053 93.1906 146.256 93.1636C146.778 93.0927 147.306 93.086 147.831 93.1197C148.095 93.1366 148.164 93.4098 148.108 93.7337C147.865 95.0898 148.502 96.1659 148.828 97.6941C149.219 96.1592 149.678 95.0493 149.681 93.6696C149.683 92.3067 150.566 93.5144 151 93.113C150.184 95.0527 149.803 97.0936 149.27 99.0637C149.126 99.5934 148.913 99.9644 148.452 99.9982C147.879 100.039 147.887 99.3977 147.754 98.9659C147.5 98.1495 147.29 97.3095 146.994 96.2334C146.661 97.431 146.389 98.3688 146.141 99.3235C146.026 99.762 145.8 99.9408 145.459 99.9779C145.059 100.025 144.92 99.6777 144.803 99.3032C144.219 97.4411 143.939 95.4305 143.07 93.7067C142.972 93.5076 142.956 93.1905 143.161 93.1602C143.683 93.086 144.214 93.0759 144.739 93.1096C145.008 93.1265 145.043 93.4166 144.995 93.7337C144.782 95.1269 145.499 96.203 145.778 97.458Z" fill="var(--fill-0, white)"/>
<path id="Vector_12" d="M130 96.1445C129.659 97.0966 129.341 98.0656 128.973 98.9975C128.69 99.7133 128.36 99.7268 128.102 98.9502C127.797 98.0352 127.509 97.1101 127.111 96.2086C126.884 97.4072 126.81 98.5923 127.207 99.8483C126.482 99.8922 125.783 100.541 126.099 98.6464C126.354 97.1169 126.714 95.3477 126.058 93.7304C125.925 93.3995 126.033 93.1328 126.258 93.1091C126.773 93.0585 127.391 92.7141 127.714 93.5886C128.102 94.642 128.436 95.7359 128.819 96.9008C129.412 96.0466 129.599 94.9898 129.96 94.068C130.154 93.5683 130.29 92.9741 130.828 93.0585C131.292 93.1328 132.024 92.5284 131.623 94.2031C131.269 95.6785 131.206 97.5322 131.86 99.0887C132.11 99.6829 132.034 99.9226 131.562 99.9463C131.103 99.9665 130.578 100.098 130.199 99.8551C129.559 99.4466 130.346 98.9739 130.305 98.4674C130.245 97.7111 130.29 96.9413 130.29 96.1749C130.194 96.1647 130.096 96.1546 130 96.1445Z" fill="var(--fill-0, white)"/>
<path id="Vector_13" d="M193.354 95.8407C193.959 95.0896 194.793 94.837 194.956 93.5874C195.092 92.5504 196.304 93.1952 197.064 93.2284C197.077 93.4445 197.12 93.6206 197.081 93.6406C195.557 94.4615 195.502 95.5383 196.382 96.9408C196.918 97.7949 197.185 98.8219 198 99.5331C197.237 100.108 196.571 99.8622 195.947 99.9054C195.456 99.9386 195.057 99.8057 195.274 99.1476C195.446 98.6258 195.287 98.1439 195.005 97.7384C194.699 97.2964 194.793 96.2628 194.056 96.4921C193.241 96.748 192.942 97.5822 193.169 98.5427C193.27 98.9648 194.098 99.3935 193.455 99.7658C192.825 100.131 191.98 100.002 191.239 99.8289C190.885 99.7458 191.002 99.4467 191.1 99.1675C191.704 97.4094 191.727 95.6347 191.096 93.8865C190.849 93.1952 191.21 93.1055 191.697 93.1121C192.285 93.1188 193 92.9692 193.429 93.255C194.121 93.7137 193.143 94.1225 193.137 94.6243C193.143 94.9965 193.065 95.3654 193.354 95.8407Z" fill="var(--fill-0, white)"/>
<path id="Vector_14" d="M157.169 93.0743C157.841 93.0106 158.402 93.0743 158.919 93.4698C159.707 94.0663 160.093 95.598 159.582 96.6706C159.157 97.5654 159.279 98.1084 159.657 98.7955C159.801 99.0603 160.148 99.2982 159.93 99.7206C159.676 100.21 159.271 99.9049 158.934 99.9183C158.718 99.9284 158.406 100.022 158.398 99.4122C158.394 99.0871 158.436 98.7452 158.383 98.4436C158.284 97.8637 157.979 97.6425 157.644 97.8336C157.245 98.0615 157.445 98.5274 157.561 98.9229C157.65 99.2212 157.998 99.6535 157.606 99.811C157.15 99.9954 156.616 100.012 156.163 99.8245C155.794 99.6703 156.159 99.2379 156.218 98.9128C156.457 97.5554 156.531 96.0371 156.273 94.8104C155.858 92.8463 156.434 92.91 157.169 93.0743ZM157.362 95.3902C157.635 95.8159 157 97.0091 157.923 96.999C158.428 96.9923 158.697 96.5399 158.688 95.7455C158.68 94.7735 158.455 93.9055 157.775 93.882C157.131 93.8585 157.527 94.8037 157.362 95.3902Z" fill="var(--fill-0, white)"/>
<path id="Vector_15" d="M181 99.8104C181.492 97.7257 181.572 95.786 181.118 93.8666C180.966 93.229 181.049 93.0232 181.416 93.03C182.113 93.0401 182.816 92.8849 183.505 93.1953C184.745 93.7552 185.184 95.3744 184.428 97.0274C183.988 97.9888 184.563 98.2654 184.704 98.8288C184.785 99.1492 185.182 99.4124 184.901 99.7666C184.595 100.151 184.16 99.9352 183.782 99.915C183.581 99.9049 183.33 99.8408 183.42 99.3449C183.505 98.8827 183.482 98.4948 183.292 98.0934C183.106 97.6987 182.867 97.7223 182.635 97.8066C182.423 97.8876 182.388 98.2587 182.47 98.4881C183.273 100.748 182.041 99.7564 181.564 99.9217C181.408 99.9791 181.228 99.861 181 99.8104ZM182.411 95.2631C182.628 95.7995 182.052 96.9633 182.954 96.9734C183.477 96.9768 183.705 96.4472 183.695 95.6612C183.684 94.7369 183.465 93.9104 182.835 93.8531C182.174 93.789 182.569 94.7538 182.411 95.2631Z" fill="var(--fill-0, white)"/>
<path id="Vector_16" d="M154.765 95.1912C154.811 95.6827 154.899 96.1776 154.884 96.6692C154.872 97.0537 154.759 97.552 154.269 97.0638C153.892 96.6859 153.43 96.3783 153.192 96.9902C152.97 97.5553 152.839 98.4147 153.305 98.8695C153.685 99.244 154.361 99.1771 154.845 98.7625C155.194 98.4615 155.219 97.8396 155.709 97.6557C156.293 99.3142 156.037 99.8392 154.586 99.866C153.527 99.886 152.258 100.234 151.461 99.7222C150.651 99.2039 151.814 97.9332 151.573 96.8932C151.333 95.8533 151.808 94.6963 151.123 93.6797C150.773 93.1581 151.245 93.0243 151.61 93.0176C152.72 93.0009 153.834 92.9842 154.945 93.0277C155.733 93.0578 155.952 93.7499 155.943 94.4354C155.931 95.3751 155.468 94.7698 155.158 94.6294C154.571 93.7968 153.886 93.3353 153.15 94.3452C152.967 94.5926 153.022 95.3383 153.232 95.5924C153.862 96.3448 154.184 95.0708 154.765 95.1912Z" fill="var(--fill-0, white)"/>
<path id="Vector_17" d="M125.148 97.3398C124.522 97.243 124.227 96.1748 123.826 96.8992C123.523 97.4466 123.459 98.5415 123.872 98.8853C124.791 99.6498 125.273 98.4213 125.81 97.5902C126.204 99.553 126.049 99.8701 124.727 99.8801C123.912 99.8868 122.927 100.227 122.324 99.7299C121.627 99.1591 122.727 98.0608 122.486 97.0193C122.25 96.0045 122.681 94.8262 122.131 93.8147C121.787 93.1805 122.191 93.047 122.533 93.037C123.39 93.0102 124.252 92.9602 125.104 93.057C125.973 93.1538 126.071 93.9583 125.911 94.943C125.384 94.8963 125.296 94.1485 124.884 94.0017C124.527 93.8748 124.131 93.6712 123.843 94.0618C123.562 94.4423 123.614 95.0498 123.762 95.4738C124.013 96.1881 124.357 95.4671 124.628 95.4871C125.663 95.5706 124.939 96.582 125.148 97.3398Z" fill="var(--fill-0, white)"/>
<path id="Vector_18" d="M169 96.7657C168.99 94.6456 170.119 93.0305 171.627 93.0004C172.993 92.9736 173.97 94.3079 173.999 96.2374C174.033 98.3575 172.914 99.966 171.387 99.9994C170.043 100.033 169.007 98.6284 169 96.7657ZM172.8 97.1369C172.773 95.271 172.057 93.813 171.25 93.8999C170.324 94.0003 170.236 94.9767 170.229 95.9498C170.217 97.6452 170.943 99.0865 171.781 99.0163C172.721 98.936 172.758 97.9395 172.8 97.1369Z" fill="var(--fill-0, white)"/>
<path id="Vector_19" d="M134.478 93.0185C134.594 93.0319 135.149 93.0554 135.687 93.1561C137.103 93.4213 138.02 94.2202 138 95.7509C137.976 97.352 136.817 97.738 135.521 97.8723C134.704 97.9562 133.763 97.9092 134.667 99.1512C134.85 99.4029 134.923 99.7151 134.561 99.8124C133.81 100.014 132.963 100.121 132.295 99.7755C131.527 99.3794 132.498 99.0035 132.524 98.5671C132.617 97.1741 132.993 95.6334 132.431 94.435C131.624 92.7097 132.614 93.0286 133.547 93.0152C133.71 93.0152 133.876 93.0185 134.478 93.0185ZM134.252 95.4655C134.531 96.0194 133.753 97.0835 135.046 97.0734C135.897 97.0667 136.335 96.5497 136.309 95.6804C136.275 94.6834 135.84 93.8107 134.813 93.8677C133.803 93.9215 134.548 94.9486 134.252 95.4655Z" fill="var(--fill-0, white)"/>
<path id="Vector_20" d="M143 96.235C143.019 98.3693 142.114 99.9967 140.91 100C139.822 100 139.012 98.6227 139 96.7519C138.986 94.6676 139.912 93.0236 141.11 93.0002C142.215 92.9802 142.982 94.2908 143 96.235ZM142.055 97.0287C142.033 95.2646 141.451 93.7939 140.804 93.8906C140.075 94.0007 139.98 94.9478 139.977 95.9349C139.973 97.6256 140.555 99.0763 141.219 98.9996C141.97 98.9129 142.008 97.9157 142.055 97.0287Z" fill="var(--fill-0, white)"/>
<path id="Vector_21" d="M210.065 97.4357C210.746 98.1803 210.996 98.9818 211.653 99.1488C212.004 99.239 212.384 99.2857 212.579 98.8349C212.795 98.3273 212.483 98.0034 212.186 97.7596C211.789 97.4323 211.365 97.1551 210.954 96.8479C210.354 96.4004 209.922 95.7993 210.068 94.8342C210.218 93.8458 210.783 93.3448 211.5 93.1411C212.948 92.7304 213.718 93.2246 213.694 94.5136C213.692 94.7207 213.681 95.0146 213.58 95.1181C213.364 95.3385 213.198 95.1047 213.063 94.8777C213.011 94.7908 212.948 94.7107 212.891 94.6305C212.561 94.1797 212.212 93.7356 211.674 93.9593C211.547 94.0127 211.396 94.2665 211.383 94.4435C211.318 95.2183 211.833 95.432 212.225 95.7392C213.076 96.4071 214.386 96.7811 213.892 98.5544C213.452 100.131 212.306 100.004 211.159 99.9937C209.566 99.9736 210.086 98.7714 210.065 97.4357Z" fill="var(--fill-0, white)"/>
<path id="Vector_22" d="M187 97.4062C187.829 97.9887 188.037 99.045 188.827 99.0812C189.136 99.0944 189.455 99.1174 189.601 98.7094C189.751 98.2881 189.56 97.9623 189.29 97.7451C188.819 97.37 188.317 97.0574 187.859 96.6559C186.722 95.6587 186.84 94.0988 188.083 93.3321C188.827 92.8746 189.648 92.9339 190.327 93.2432C190.88 93.4933 190.695 94.4411 190.664 95.1486C189.964 95.1618 189.887 94.2601 189.411 94.0199C189.069 93.8454 188.737 93.6908 188.487 94.1285C188.238 94.5694 188.408 94.9841 188.719 95.2441C189.182 95.6324 189.671 95.9681 190.152 96.3235C190.71 96.7348 191.104 97.2713 190.976 98.1697C190.855 99.0056 190.407 99.4432 189.815 99.7658C189.048 100.184 188.245 99.95 187.546 99.7723C186.753 99.5683 187.162 98.4494 187 97.4062Z" fill="var(--fill-0, white)"/>
<path id="Vector_23" d="M178.782 95.8277C178.739 95.2216 178.736 94.6054 178.634 94.0094C178.576 93.6678 178.133 93.2961 178.711 93.0952C179.034 92.9814 179.464 92.9546 179.762 93.0986C180.294 93.3564 179.772 93.7114 179.744 94.0362C179.649 95.1379 179.667 96.2529 179.575 97.358C179.424 99.1662 178.588 100 177.008 100C175.533 100 174.721 99.1796 174.46 97.4819C174.26 96.1927 174.589 94.9001 174.054 93.564C173.747 92.8005 174.832 93.0952 175.293 93.0517C176.086 92.9814 176.931 92.8307 176.147 94.2974C175.671 95.1847 175.957 96.3768 176.037 97.4216C176.098 98.242 176.455 98.9854 177.34 98.9887C178.287 98.9887 178.659 98.2688 178.717 97.3345C178.748 96.8356 178.723 96.3333 178.723 95.831C178.739 95.8277 178.76 95.8277 178.782 95.8277Z" fill="var(--fill-0, white)"/>
<path id="Vector_24" d="M164 93.4365C165.637 91.9529 165.602 94.6339 166.244 95.7819C166.562 95.4332 166.81 94.8477 166.798 94.3839C166.757 92.7029 167.348 93.1635 168 93.2885C167.647 94.0812 167.344 94.7325 167.058 95.4135C166.573 96.5681 166.227 97.7654 166.721 99.1766C166.897 99.6766 166.731 99.8148 166.451 99.9102C165.572 100.21 165.285 99.7753 165.476 98.3871C165.622 97.3279 165.352 96.4858 164.983 95.6799C164.65 94.9562 164.337 94.2128 164 93.4365Z" fill="var(--fill-0, white)"/>
<path id="Vector_25" d="M206.205 96.7737C206.205 95.8415 206.286 95.11 206.19 94.6235C205.858 92.9427 206.211 92.9665 206.68 93.0142C207.063 93.0516 207.15 93.1809 206.966 94.2662C206.738 95.6101 206.904 97.1547 206.887 98.6075C206.883 98.9341 206.971 99.1008 207.09 99.1417C207.295 99.2165 207.468 99.111 207.591 98.6177C207.668 98.3149 207.681 97.7944 207.878 97.8386C208.029 97.8726 208.001 98.2435 207.993 98.4986C207.977 99.043 208.016 99.8357 207.757 99.9072C207.226 100.047 206.688 99.9922 206.153 99.9752C206.044 99.9718 205.942 99.6928 206.039 99.39C206.328 98.4918 206.168 97.4371 206.205 96.7737Z" fill="var(--fill-0, white)"/>
<path id="Vector_26" d="M203.873 97.5372C204.142 99.6876 204.037 99.9594 203.038 99.99C202.385 100.01 201.73 99.9934 201 99.9934C201.419 97.8192 201.568 95.7809 201.079 93.7494C200.976 93.3179 201.057 93.0666 201.301 93.0598C201.724 93.0428 202.227 92.8729 202.551 93.1956C202.971 93.6135 202.341 94.0483 202.351 94.5953C202.377 95.893 202.29 97.2009 202.361 98.4884C202.423 99.6095 202.937 99.1984 203.246 98.9029C203.475 98.6787 203.606 98.1419 203.873 97.5372Z" fill="var(--fill-0, white)"/>
<path id="Vector_27" d="M198 99.9927C198.308 97.7877 198.346 95.8418 198.089 93.9263C197.999 93.2563 198.064 93.1823 198.255 93.088C198.81 92.8153 198.879 93.1318 198.847 94.6669C198.816 96.1852 198.684 97.7843 198.958 99.2521C199.064 99.821 198.954 99.9658 198.799 99.986C198.551 100.013 198.303 99.9927 198 99.9927Z" fill="var(--fill-0, white)"/>
</g>
</svg>
