<svg preserveAspectRatio="none" width="100%" height="100%" overflow="visible" style="display: block;" viewBox="0 0 29 28" fill="none" xmlns="http://www.w3.org/2000/svg">
<g id="phone" clip-path="url(#clip0_2_452)">
<g id="Vector">
</g>
<path id="Vector_2" d="M7.99917 12.5883C9.73917 15.89 12.5425 18.585 15.9621 20.2767L18.6204 17.71C18.9467 17.395 19.43 17.29 19.8529 17.43C21.2063 17.8617 22.6683 18.095 24.1667 18.095C24.8313 18.095 25.375 18.62 25.375 19.2617V23.3333C25.375 23.975 24.8313 24.5 24.1667 24.5C12.8204 24.5 3.625 15.6217 3.625 4.66667C3.625 4.025 4.16875 3.5 4.83333 3.5H9.0625C9.72708 3.5 10.2708 4.025 10.2708 4.66667C10.2708 6.125 10.5125 7.525 10.9596 8.83167C11.0925 9.24 10.9958 9.695 10.6575 10.0217L7.99917 12.5883Z" fill="var(--fill-0, white)"/>
</g>
<defs>
<clipPath id="clip0_2_452">
<rect width="29" height="28" fill="white"/>
</clipPath>
</defs>
</svg>
