<svg width="200" height="200" viewBox="0 0 200 200" fill="none" xmlns="http://www.w3.org/2000/svg">
  <path d="M100 30 C60 30 50 50 50 70 L50 90 L100 90 L100 95 L40 95 C20 95 20 130 40 150 L60 150 C60 170 80 180 100 180 C120 180 140 170 140 150 L150 150 C170 130 170 95 150 95 L100 95 L100 90 L150 90 L150 70 C150 50 140 30 100 30" fill="#3776AB"/>
  <circle cx="75" cy="55" r="8" fill="white"/>
  <path d="M100 170 C140 170 150 150 150 130 L150 110 L100 110 L100 105 L160 105 C180 105 180 70 160 50 L140 50 C140 30 120 20 100 20 C80 20 60 30 60 50 L50 50 C30 70 30 105 50 105 L100 105 L100 110 L50 110 L50 130 C50 150 60 170 100 170" fill="#FFD43B"/>
  <circle cx="125" cy="145" r="8" fill="white"/>
</svg>
