<svg preserveAspectRatio="none" width="100%" height="100%" overflow="visible" style="display: block;" viewBox="0 0 30.0914 30.0914" fill="none" xmlns="http://www.w3.org/2000/svg">
<g id="ic_Search">
<g id="Path">
</g>
<path id="Combined Shape" d="M5.87112 5.87135C10.3562 1.38625 17.6282 1.3863 22.1133 5.87135C26.2129 9.97092 26.5628 16.3969 23.168 20.8967L27.7012 25.4299C28.883 26.612 27.1098 28.3852 25.9278 27.2034L21.4473 22.7229C16.935 26.5845 10.1415 26.384 5.87112 22.1135C1.38607 17.6284 1.38602 10.3564 5.87112 5.87135ZM20.3408 7.64479C16.835 4.13895 11.1504 4.13895 7.64455 7.64479C4.13909 11.1505 4.13915 16.8343 7.64455 20.3401C11.1504 23.8459 16.835 23.8459 20.3408 20.3401C23.8464 16.8343 23.8465 11.1506 20.3408 7.64479Z" fill="var(--fill-0, #92929D)"/>
</g>
</svg>
