<svg preserveAspectRatio="none" width="100%" height="100%" overflow="visible" style="display: block;" viewBox="0 0 25.6035 19.1762" fill="none" xmlns="http://www.w3.org/2000/svg">
<path id="Union" d="M4.69434 0.240027C8.53506 -0.0800021 17.0696 -0.080016 20.9102 0.240027C25.0705 0.560148 25.6035 3.01366 25.6035 9.62772C25.6035 16.242 25.0706 18.803 20.9102 19.0164C17.3096 19.2164 9.58304 19.2285 5.4668 19.0535L4.69434 19.0164C0.533686 18.6963 2.00397e-10 16.2421 0 9.62772C1.29649e-05 3.01354 0.533736 0.560073 4.69434 0.240027ZM20.5586 4.46171C16.9521 4.16117 8.65239 4.16117 5.0459 4.46171L5.01855 4.46366C4.83227 4.478 4.68988 4.49712 4.58398 4.51542C4.51596 4.75552 4.42999 5.16588 4.36426 5.83182C4.27064 6.78027 4.23633 8.00205 4.23633 9.62772C4.23633 11.2535 4.27063 12.4761 4.36426 13.4246C4.42987 14.089 4.51604 14.4988 4.58398 14.7391C4.68408 14.7564 4.81665 14.7748 4.98828 14.7889C8.7021 14.9903 17.0102 14.9905 20.6748 14.7869L20.6836 14.7859H20.6934C20.8265 14.7791 20.935 14.7674 21.0225 14.7566C21.0907 14.5057 21.1764 14.093 21.2402 13.4422C21.3342 12.4834 21.3682 11.2529 21.3682 9.62772C21.3682 8.00207 21.3339 6.78026 21.2402 5.83182C21.1745 5.16576 21.0876 4.7555 21.0195 4.51542C20.9136 4.49713 20.7712 4.47798 20.585 4.46366L20.5713 4.46268L20.5586 4.46171ZM9.60156 8.78788C9.60156 7.21339 11.2587 6.18921 12.667 6.89335L14.3477 7.73319C15.9087 8.51373 15.9087 10.7417 14.3477 11.5223L12.667 12.3621C11.2588 13.0662 9.60185 12.0428 9.60156 10.4685V8.78788Z" fill="var(--fill-0, white)"/>
</svg>
