<svg width="600" height="500" viewBox="0 0 600 500" fill="none" xmlns="http://www.w3.org/2000/svg">
  <!-- Person -->
  <circle cx="300" cy="150" r="50" fill="#f98149"/>
  <rect x="250" y="200" width="100" height="150" rx="20" fill="#003f7d"/>
  
  <!-- Laptop -->
  <rect x="200" y="350" width="200" height="120" rx="10" fill="#2e343d"/>
  <rect x="210" y="360" width="180" height="90" rx="5" fill="#5a6268"/>
  <rect x="180" y="470" width="240" height="10" rx="5" fill="#2e343d"/>
  
  <!-- Decorative elements -->
  <circle cx="480" cy="100" r="30" fill="#f98149" opacity="0.3"/>
  <circle cx="520" cy="150" r="20" fill="#003f7d" opacity="0.3"/>
  <rect x="100" y="200" width="60" height="60" rx="10" fill="#f98149" opacity="0.2"/>
  <rect x="450" y="300" width="80" height="80" rx="10" fill="#003f7d" opacity="0.2"/>
  
  <!-- Code lines on screen -->
  <rect x="220" y="375" width="100" height="8" rx="2" fill="#f98149"/>
  <rect x="220" y="390" width="80" height="8" rx="2" fill="white" opacity="0.5"/>
  <rect x="220" y="405" width="120" height="8" rx="2" fill="#61DAFB"/>
  <rect x="220" y="420" width="60" height="8" rx="2" fill="white" opacity="0.5"/>
</svg>
